# AST/ASF file generated using VICON BodyLanguage
# -----------------------------------------------
:version 1.10
:name VICON
:units
  mass 1.0
  length 0.45
  angle deg
:documentation
   .ast/.asf automatically generated from VICON data using
   VICON BodyBuilder and BodyLanguage model FoxedUp or BRILLIANT.MOD
:root
   order TX TY TZ RX RY RZ
   axis XYZ
   position 0 0 0  
   orientation 0 0 0 
:bonedata
  begin
     id 1 
     name lhipjoint
     direction 0.612567 -0.751349 0.245431 
     length 2.42285 
     axis 0 0 0  XYZ
  end
  begin
     id 2 
     name lfemur
     direction 0.34202 -0.939693 0  
     length 7.11304  
     axis 0 0 20  XYZ
    dof rx ry rz
    limits (-160.0 20.0)
           (-70.0 70.0)
           (-60.0 70.0)
  end
  begin
     id 3 
     name ltibia
     direction 0.34202 -0.939693 0   
     length 7.84529   
     axis 0 0 20   XYZ
    dof rx
    limits (-10.0 170.0)
  end
  begin
     id 4 
     name lfoot
     direction 0.0779239 -0.214094 0.9737   
     length 1.97176   
     axis -90 7.62852e-016 20   XYZ
    dof rx rz
    limits (-45.0 90.0)
           (-70.0 20.0)
  end
  begin
     id 5 
     name ltoes
     direction 1.53565e-011 -4.21709e-011 1   
     length 0.993197   
     axis -90 7.62852e-016 20   XYZ
    dof rx
    limits (-90.0 20.0)
  end
  begin
     id 6 
     name rhipjoint
     direction -0.665722 -0.709315 0.231701   
     length 2.56642  
     axis 0 0 0  XYZ 
  end
  begin
     id 7 
     name rfemur
     direction -0.34202 -0.939693 0   
     length 7.32108   
     axis 0 0 -20   XYZ
    dof rx ry rz
    limits (-160.0 20.0)
           (-70.0 70.0)
           (-70.0 60.0)
  end
  begin
     id 8 
     name rtibia
     direction -0.34202 -0.939693 0   
     length 7.81254   
     axis 0 0 -20   XYZ
    dof rx
    limits (-10.0 170.0)
 end
 begin
     id 9 
     name rfoot
     direction -0.0832806 -0.228812 0.969902   
     length 2.08278  
     axis -90 -7.62852e-016 -20   XYZ
    dof rx rz
    limits (-45.0 90.0)
           (-20.0 70.0)
  end
  begin
     id 10 
     name rtoes
     direction -1.53589e-011 -4.22086e-011 1   
     length 1.04609   
     axis -90 -7.62852e-016 -20   XYZ
    dof rx
    limits (-90.0 20.0)
  end
  begin
     id 11 
     name lowerback
     direction -0.00506013 0.988403 -0.151766   
     length 2.01978   
     axis 0 0 0   XYZ
    dof rx ry rz
    limits (-20.0 45.0)
           (-30.0 30.0)
           (-30.0 30.0)
  end
  begin
     id 12 
     name upperback
     direction -0.00836389 0.99968 0.0238859   
     length 2.01276   
     axis 0 0 0   XYZ
    dof rx ry rz
    limits (-20.0 45.0)
           (-30.0 30.0)
           (-30.0 30.0)
  end
  begin
     id 13 
     name thorax
     direction -0.00684136 0.995386 0.0957043   
     length 2.07303   
     axis 0 0 0   XYZ
    dof rx ry rz
    limits (-20.0 45.0)
           (-30.0 30.0)
           (-30.0 30.0)
  end
  begin
     id 14 
     name lowerneck
     direction -0.0161045 0.999661 0.0204485   
     length 1.91243   
     axis 0 0 0   XYZ
    dof rx ry rz
    limits (-20.0 45.0)
           (-30.0 30.0)
           (-30.0 30.0)
  end
  begin
     id 15 
     name upperneck
     direction 0.0553583 0.990946 -0.122319   
     length 1.91574   
     axis 0 0 0   XYZ
    dof rx ry rz
    limits (-20.0 45.0)
           (-30.0 30.0)
           (-30.0 30.0)
  end
  begin
     id 16
     name head
     direction 0.0180273 0.998839 -0.0446756  
     length 1.92693  
     axis 0 0 0   XYZ
    dof rx ry rz
    limits (-20.0 45.0)
           (-30.0 30.0)
           (-30.0 30.0)
  end
  begin
     id 17 
     name lclavicle
     direction 0.945646 0.319323 -0.0615358  
     length 4.0076  
     axis 0 0 0   XYZ
    dof ry rz
    limits (-20.0 10.0)
           (0.0 20.0)
  end
  begin
     id 18 
     name lhumerus
     direction 1 -4.48967e-011 -2.79996e-027   
     length 5.64147   
     axis 180 -30 -90   XYZ
    dof rx ry rz
    limits (-60.0 90.0)
           (-90.0 90.0)
           (-90.0 90.0)
  end
  begin
     id 19
     name lradius
     direction 1 -4.48976e-011 -9.5122e-027   
     length 2.86444   
     axis 180 -30 -90   XYZ
    dof rx
    limits (-10.0 170.0)
  end
  begin
     id 20
     name lwrist
     direction 1 -4.48983e-011 -1.24047e-026   
     length 1.43222   
     axis 9.05591e-015 90 90   XYZ
    dof ry
    limits (-180.0 0.0)
 end
  begin
     id 21 
     name lhand
     direction 1 -4.4892e-011 -2.48094e-026   
     length 0.722123   
     axis 1.58305e-014 90 90   XYZ
    dof rx rz
    limits (-90.0 90.0)
           (-45.0 45.0)
  end
  begin
     id 22 
     name lfingers
     direction 1 -4.48895e-011 -4.96187e-026   
     length 0.582194   
     axis 3.1661e-014 90 90   XYZ
    dof rx
    limits (0.0 90.0)
  end
  begin
     id 23
     name lthumb
     direction 0.707107 -6.34961e-011 0.707107   
     length 0.835918   
     axis -90 45 2.85299e-015   XYZ
    dof rx rz
    limits (-45.0 45.0)
           (-45.0 45.0)
  end
  begin
     id 24 
     name rclavicle
     direction -0.932635 0.324218 -0.15835   
     length 3.65819  
     axis 0 0 0   XYZ 
    dof ry rz
    limits (-10.0 20.0)
           (-20.0 0.0)
  end
  begin
     id 25 
     name rhumerus
     direction -1 -4.48965e-011 -4.02296e-027  
     length 5.44729   
     axis 180 30 90   XYZ
    dof rx ry rz
    limits (-90.0 60.0)
           (-90.0 90.0)
           (-90.0 90.0)
  end
  begin
     id 26 
     name rradius
     direction -1 -4.48957e-011 -8.81087e-027   
     length 3.08821   
     axis 180 30 90   XYZ
    dof rx
    limits (-10.0 170.0)
  end
  begin
     id 27 
     name rwrist
     direction -1 -4.49015e-011 -1.24047e-026   
     length 1.5441   
     axis 9.05591e-015 -90 -90   XYZ
    dof ry
    limits (-180.0 0.0)
  end
  begin
     id 28
     name rhand
     direction -1 -4.4891e-011 -2.48094e-026   
     length 0.821049   
     axis 1.58305e-014 -90 -90   XYZ
    dof rx rz
    limits (-90.0 90.0)
           (-45.0 45.0)
  end
  begin
     id 29
     name rfingers
     direction -1 -4.48985e-011 -4.96187e-026   
     length 0.661951   
     axis 3.1661e-014 -90 -90   XYZ
    dof rx
    limits (0.0 90.0)
  end
  begin
     id 30
     name rthumb
     direction -0.707107 -6.34906e-011 0.707107   
     length 0.950433   
     axis -90 -45 -2.85299e-015   XYZ
    dof rx rz
    limits (-45.0 45.0)
           (-45.0 45.0)
  end
:hierarchy
  begin
    root lhipjoint rhipjoint lowerback
    lhipjoint lfemur
    lfemur ltibia
    ltibia lfoot
    lfoot ltoes
    rhipjoint rfemur
    rfemur rtibia
    rtibia rfoot
    rfoot rtoes
    lowerback upperback
    upperback thorax
    thorax lowerneck lclavicle rclavicle
    lowerneck upperneck
    upperneck head
    lclavicle lhumerus
    lhumerus lradius
    lradius lwrist
    lwrist lhand lthumb
    lhand lfingers
    rclavicle rhumerus
    rhumerus rradius
    rradius rwrist
    rwrist rhand rthumb
    rhand rfingers
  end

#!OML:ASF F:\VICON\USERDATA\INSTALL\rory3\rory3.ASF
:FULLY-SPECIFIED
:DEGREES
388
root 7.43463 17.3377 6.45637 -2.14887 33.9251 -0.965597
lowerback -1.02779 0.451822 3.58766
upperback 3.46889 0.5495 -1.27873
thorax 4.20648 0.424067 -3.30933
lowerneck -4.48352 -2.31095 -2.87432
upperneck 19.1145 -3.15712 2.4935
head 6.63061 -1.47303 1.06355
rclavicle -2.55935e-014 5.1684e-015
rhumerus -33.1501 -10.5935 -83.898
rradius 30.749
rwrist 13.96
rhand -7.83344 8.68262
rfingers 7.12502
rthumb 18.0691 -20.4981
lclavicle -2.55935e-014 5.1684e-015
lhumerus -27.5541 -0.107919 85.144
lradius 19.6019
lwrist 26.2706
lhand -12.4565 9.7952
lfingers 7.12502
lthumb 13.6171 39.3298
rfemur 3.26507 0.0761928 29.2591
rtibia 21.9769
rfoot -22.3277 -2.16104
rtoes -4.5442
lfemur -22.2755 3.22863 -22.8307
ltibia 23.3281
lfoot -14.8366 1.02591
ltoes -16.5233
389
root 7.46071 17.3365 6.50023 -2.26904 33.6858 -1.14526
lowerback -0.955359 0.454474 3.66166
upperback 3.4353 0.548706 -1.15563
thorax 4.12972 0.421502 -3.22356
lowerneck -4.40809 -2.21533 -2.95917
upperneck 19.148 -3.00429 2.41848
head 6.62403 -1.41138 1.06554
rclavicle -1.55549e-014 -5.56597e-015
rhumerus -33.2483 -10.2073 -83.8783
rradius 30.8037
rwrist 13.7074
rhand -7.86819 8.6345
rfingers 7.12502
rthumb 18.0357 -20.5493
lclavicle -1.55549e-014 -5.56597e-015
lhumerus -27.6853 -0.0445509 85.2683
lradius 19.6086
lwrist 26.2822
lhand -12.4496 9.7519
lfingers 7.12502
lthumb 13.6237 39.2861
rfemur 3.6432 0.0209023 29.376
rtibia 21.6472
rfoot -22.2146 -1.88769
rtoes -4.3192
lfemur -22.3313 3.99353 -23.0525
ltibia 22.3739
lfoot -14.6679 0.308112
ltoes -15.3797
390
root 7.48879 17.3352 6.5459 -2.41321 33.4676 -1.3707
lowerback -0.914196 0.457561 3.82108
upperback 3.43365 0.545896 -1.05914
thorax 4.10563 0.422981 -3.21351
lowerneck -4.39636 -2.12449 -2.99093
upperneck 19.1636 -2.86143 2.33494
head 6.62222 -1.35137 1.05444
rclavicle 1.20265e-014 8.74653e-015
rhumerus -33.27 -10.0739 -83.8312
rradius 30.77
rwrist 13.7159
rhand -7.84264 8.68056
rfingers 7.12502
rthumb 18.0602 -20.501
lclavicle 1.20265e-014 8.74653e-015
lhumerus -27.7325 0.15826 85.3099
lradius 19.5864
lwrist 26.121
lhand -12.2879 9.72494
lfingers 7.12502
lthumb 13.7796 39.2486
rfemur 4.04267 -0.167689 29.4972
rtibia 21.2941
rfoot -22.0174 -1.47948
rtoes -4.10917
lfemur -22.3155 4.72289 -23.2659
ltibia 21.4196
lfoot -14.4918 -0.224756
ltoes -15.6362
391
root 7.51725 17.334 6.59158 -2.43489 33.216 -1.40956
lowerback -0.898423 0.465046 3.84527
upperback 3.47312 0.554783 -1.03848
thorax 4.13873 0.429288 -3.20528
lowerneck -4.49322 -2.05478 -3.04104
upperneck 19.1491 -2.75544 2.31465
head 6.63205 -1.30543 1.06286
rclavicle -6.39093e-014 1.80894e-014
rhumerus -33.1995 -10.0764 -83.8218
rradius 30.7202
rwrist 13.8388
rhand -7.76658 8.70641
rfingers 7.12502
rthumb 18.1334 -20.4683
lclavicle -6.39093e-014 1.80894e-014
lhumerus -27.7379 0.256716 85.3201
lradius 19.6886
lwrist 26.1559
lhand -12.2545 9.9145
lfingers 7.12502
lthumb 13.8118 39.436
rfemur 4.44869 -0.231336 29.4818
rtibia 20.8968
rfoot -21.7987 -1.2563
rtoes -3.9355
lfemur -22.282 5.19501 -23.5841
ltibia 20.4711
lfoot -14.3032 -0.627131
ltoes -14.7277
392
root 7.5472 17.3363 6.63866 -2.40754 32.9794 -1.44251
lowerback -0.954295 0.454001 3.89595
upperback 3.50456 0.535535 -1.02809
thorax 4.20232 0.423089 -3.22356
lowerneck -4.61568 -1.96647 -3.10067
upperneck 19.1439 -2.62168 2.29052
head 6.64861 -1.24701 1.07349
rclavicle -6.36856e-014 6.95746e-015
rhumerus -33.1298 -9.89418 -83.8921
rradius 30.7413
rwrist 13.75
rhand -7.70881 8.70915
rfingers 7.12502
rthumb 18.189 -20.4604
lclavicle -6.36856e-014 6.95746e-015
lhumerus -27.6964 0.504682 85.2622
lradius 19.6831
lwrist 26.0502
lhand -12.3282 9.95454
lfingers 7.12502
lthumb 13.7407 39.4808
rfemur 4.80753 -0.353706 29.4591
rtibia 20.491
rfoot -21.6043 -1.11488
rtoes -4.54945
lfemur -22.2655 5.47875 -23.8648
ltibia 19.5067
lfoot -14.0822 -0.861712
ltoes -14.1853
393
root 7.57638 17.343 6.68528 -2.45188 32.784 -1.55217
lowerback -0.977462 0.453835 4.03169
upperback 3.51162 0.529765 -1.02344
thorax 4.2245 0.425291 -3.29534
lowerneck -4.56181 -1.86046 -3.06811
upperneck 19.0681 -2.47516 2.25699
head 6.60968 -1.1776 1.06821
rclavicle -1.10425e-013 1.21259e-014
rhumerus -33.1626 -9.81074 -83.9392
rradius 30.7838
rwrist 13.792
rhand -7.60887 8.70167
rfingers 7.12502
rthumb 18.2851 -20.4589
lclavicle -1.10425e-013 1.21259e-014
lhumerus -27.7286 0.600531 85.2071
lradius 19.6294
lwrist 25.9411
lhand -12.3579 9.81066
lfingers 7.12502
lthumb 13.7121 39.3389
rfemur 5.16931 -0.440044 29.5225
rtibia 20.1516
rfoot -21.4533 -0.993223
rtoes -4.80489
lfemur -22.157 5.57564 -24.0203
ltibia 18.4585
lfoot -13.7357 -0.927975
ltoes -12.6281
